<svg xmlns="http://www.w3.org/2000/svg" viewBox="0 0 340 210">
  <g transform="translate(170, 88)">
    <line x1="-68" y1="30" x2="0" y2="-52" stroke="#f5f0e8" stroke-width="2" stroke-linecap="round"/>
    <line x1="68" y1="30" x2="0" y2="-52" stroke="#f5f0e8" stroke-width="2" stroke-linecap="round"/>
    <path d="M -52 30 A 52 52 0 0 1 52 30" fill="none" stroke="#c9879a" stroke-width="1.5" stroke-linecap="round" opacity="0.95"/>
    <path d="M -68 30 A 68 68 0 0 1 68 30" fill="none" stroke="#7e5a7e" stroke-width="1" stroke-linecap="round" opacity="0.5"/>
    <path d="M -36 30 A 36 36 0 0 1 36 30" fill="none" stroke="#c9879a" stroke-width="0.8" stroke-linecap="round" opacity="0.45"/>
    <line x1="-68" y1="30" x2="68" y2="30" stroke="#f5f0e8" stroke-width="0.6" opacity="0.2"/>
    <circle cx="0" cy="30" r="3" fill="#c9879a"/>
    <circle cx="-68" cy="30" r="1.5" fill="#f5f0e8" opacity="0.3"/>
    <circle cx="68" cy="30" r="1.5" fill="#f5f0e8" opacity="0.3"/>
  </g>
  <text x="170" y="148" font-family="Georgia, serif" font-size="28" font-weight="400" letter-spacing="8" fill="#f5f0e8" text-anchor="middle">VESPERA</text>
  <text x="170" y="166" font-family="Georgia, serif" font-size="10" font-weight="300" letter-spacing="13" fill="#7e5a7e" text-anchor="middle">MAISON</text>
  <line x1="100" y1="182" x2="152" y2="182" stroke="#cac0b8" stroke-width="0.5" opacity="0.4"/>
  <circle cx="170" cy="182" r="1.5" fill="#c9879a" opacity="0.8"/>
  <line x1="188" y1="182" x2="240" y2="182" stroke="#cac0b8" stroke-width="0.5" opacity="0.4"/>
  <text x="170" y="200" font-family="Arial, sans-serif" font-size="7" font-weight="200" letter-spacing="4" fill="#9e9189" text-anchor="middle">HOME IS A FEELING</text>
</svg>
